<svg viewBox="0 0 32 32" xmlns="http://www.w3.org/2000/svg">
  <style>
    .stroke {
      fill: none;
      stroke: #20515b;
      stroke-width: 1.2px;
      stroke-linecap: round;
    }
    .fill {
      fill: #20515b;
    }
  </style>
  <path class="stroke" d="m11.701 7.7265c-3.7838-0.68266-6.8881-0.032763-8.0861 2.0226-0.88881 1.5249-0.57658 3.5632 0.66014 5.6999m2.0509 2.7397c1.5655 1.7042 3.6403 3.3594 6.0857 4.758 5.8293 3.3338 11.881 4.1313 14.755 2.1902m2.6787-1.0803c0-0.85933-0.70326-1.556-1.5708-1.556-0.86752 0-1.5708 0.69663-1.5708 1.556s0.70326 1.556 1.5708 1.556c0.86752 0 1.5708-0.69663 1.5708-1.556z"/>
  <path class="stroke" d="m26.102 17.7c2.4773-2.8989 3.4547-5.8787 2.2592-7.9298-0.87425-1.5-2.7637-2.2514-5.1916-2.2827m-3.4722 0.37356c-2.2916 0.48636-4.8022 1.4437-7.2728 2.8567-6.0014 3.4322-9.7702 8.4107-9.2587 11.863m0.51949 3.032c0.86752 0 1.5708-0.69663 1.5708-1.556s-0.70326-1.556-1.5708-1.556-1.5708 0.69663-1.5708 1.556 0.70326 1.556 1.5708 1.556z"/>
  <path class="stroke" d="m10.186 25.07c1.2953 3.5829 3.4143 5.9176 5.8086 5.9176 1.7351 0 3.3256-1.2261 4.5628-3.2648m1.4939-3.3864c0.68642-2.1729 1.0832-4.7416 1.0832-7.4939 0-6.7545-2.3897-12.403-5.5855-13.809m-1.5544 1.2198c0.86752 0 1.5708-0.69663 1.5708-1.556s-0.70326-1.556-1.5708-1.556c-0.86752 0-1.5708 0.69663-1.5708 1.556s0.70326 1.556 1.5708 1.556z"/>
  <path class="fill" d="m16.298 18.233c-0.77557 0.166-1.5397-0.32225-1.7076-1.0905-0.16725-0.76826 0.32531-1.5251 1.1009-1.6915 0.77557-0.166 1.5397 0.32225 1.7076 1.0905 0.16758 0.76826-0.32531 1.5251-1.1009 1.6915z"/>
</svg>