<svg viewBox="0 0 512 512" xmlns="http://www.w3.org/2000/svg">
  <style>
    .stroke {
      fill: none;
      stroke: #20515b;
      stroke-width: 19.2px;
      stroke-linecap: round;
    }
    .fill {
      fill: #20515b;
    }
  </style>
  <path class="stroke" d="m188.4 123.36c-60.55-10.92-110.21-0.52-129.38 32.36-14.22 24.4-9.23 57.01 10.56 91.2m32.82 43.84c25.04 27.26 58.24 53.75 97.37 76.12 93.27 53.34 190.09 66.1 236.07 35.05m42.86-17.29c0-13.75-11.25-24.89-25.13-24.89s-25.13 11.14-25.13 24.89 11.25 24.9 25.13 24.9 25.13-11.15 25.13-24.9z"/>
  <path class="stroke" d="m418.8 282.93c39.64-46.38 55.27-94.06 36.15-126.87-13.99-24-44.22-36.03-83.07-36.53m-55.55 5.98c-36.67 7.78-76.84 23.1-116.37 45.71-96.02 54.91-156.32 134.57-148.14 189.81m8.31 48.51c13.88 0 25.13-11.15 25.13-24.9s-11.25-24.89-25.13-24.89-25.13 11.14-25.13 24.89 11.25 24.9 25.13 24.9z"/>
  <path class="stroke" d="m164.14 400.86c20.73 57.32 54.63 94.68 92.94 94.68 27.76 0 53.21-19.62 73-52.24m23.91-54.18c10.98-34.77 17.33-75.87 17.33-119.9 0-108.08-38.24-198.46-89.37-220.95m-24.87 19.52c13.88 0 25.13-11.15 25.13-24.89 0-13.75-11.25-24.9-25.13-24.9s-25.13 11.15-25.13 24.9c0 13.74 11.25 24.89 25.13 24.89z"/>
  <path class="fill" d="m261.93 291.47c-12.41 2.66-24.63-5.15-27.32-17.45-2.67-12.29 5.21-24.4 17.62-27.06 12.4-2.65 24.63 5.16 27.32 17.45 2.68 12.29-5.21 24.4-17.62 27.06z"/>
</svg>